HIERARCHY
ROOT root
{
	OFFSET 0.00 0.00 0.00
	CHANNELS 6 Xposition Yposition Zposition Zrotation Xrotation Yrotation
	JOINT lowerback
	{
		OFFSET 0 0 0
		CHANNELS 6 Xposition Yposition Zposition Zrotation Xrotation Yrotation
		JOINT upperback
		{
			OFFSET -0.214371 12.3768 -1.12219
			CHANNELS 6 Xposition Yposition Zposition Zrotation Xrotation Yrotation
			JOINT thorax
			{
				OFFSET -0.00137213 12.3873 0.296195
				CHANNELS 6 Xposition Yposition Zposition Zrotation Xrotation Yrotation
				JOINT lowerneck
				{
					OFFSET 0.0883157 12.5016 0.82912
					CHANNELS 6 Xposition Yposition Zposition Zrotation Xrotation Yrotation
					JOINT upperneck
					{
						OFFSET -1 10.1794 0.943522
						CHANNELS 6 Xposition Yposition Zposition Zrotation Xrotation Yrotation
						JOINT head
						{
							OFFSET 0.667525 10.2797 -1.57149
							CHANNELS 6 Xposition Yposition Zposition Zrotation Xrotation Yrotation
							End Site
							{
								OFFSET 0 0 0
							}
						}
					}
				}
				JOINT lclavicle
				{
					OFFSET 0.0883157 12.5016 0.82912
					CHANNELS 6 Xposition Yposition Zposition Zrotation Xrotation Yrotation
					JOINT lhumerus
					{
						OFFSET 20.61 4.45006 1.43784
						CHANNELS 6 Xposition Yposition Zposition Zrotation Xrotation Yrotation
						JOINT lradius
						{
							OFFSET 0 -30.3438 0
							CHANNELS 6 Xposition Yposition Zposition Zrotation Xrotation Yrotation
							JOINT lwrist
							{
								OFFSET 0 -18.964 0
								CHANNELS 6 Xposition Yposition Zposition Zrotation Xrotation Yrotation
								JOINT lhand
								{
									OFFSET 0 -9.48199 0
									CHANNELS 6 Xposition Yposition Zposition Zrotation Xrotation Yrotation
									JOINT lfingers
									{
										OFFSET 0 -3.17138 0
										CHANNELS 6 Xposition Yposition Zposition Zrotation Xrotation Yrotation
										End Site
										{
											OFFSET 0 -2.55685 0
										}
									}
								}
								JOINT lthumb
								{
									OFFSET 0 -9.48199 0
									CHANNELS 6 Xposition Yposition Zposition Zrotation Xrotation Yrotation
									End Site
									{
										OFFSET 0 -3.67114 0
									}
								}
							}
						}
					}
				}
				JOINT rclavicle
				{
					OFFSET 0.0883157 12.5016 0.82912
					CHANNELS 6 Xposition Yposition Zposition Zrotation Xrotation Yrotation
					JOINT rhumerus
					{
						OFFSET -20.61 4.45 1.44
						CHANNELS 6 Xposition Yposition Zposition Zrotation Xrotation Yrotation
						JOINT rradius
						{
							OFFSET 0 -29.5102 0
							CHANNELS 6 Xposition Yposition Zposition Zrotation Xrotation Yrotation
							JOINT rwrist
							{
								OFFSET 0 -19.2342 0
								CHANNELS 6 Xposition Yposition Zposition Zrotation Xrotation Yrotation
								JOINT rhand
								{
									OFFSET 0 -9.61712 0
									CHANNELS 6 Xposition Yposition Zposition Zrotation Xrotation Yrotation
									JOINT rfingers
									{
										OFFSET 0 -3.29215 0
										CHANNELS 6 Xposition Yposition Zposition Zrotation Xrotation Yrotation
										End Site
										{
											OFFSET 0 -2.557 0
										}
									}
								}
								JOINT rthumb
								{
									OFFSET 0 -9.61712 0
									CHANNELS 6 Xposition Yposition Zposition Zrotation Xrotation Yrotation
									End Site
									{
										OFFSET 0 -3.671 0
									}
								}
							}
						}
					}
				}
			}
		}
	}
	JOINT rfemur
	{
		OFFSET -8.46272 -9.62775 4.76248
		CHANNELS 6 Xposition Yposition Zposition Zrotation Xrotation Yrotation
		JOINT rtibia
		{
			OFFSET 1.00552e-005 -38.0331 0
			CHANNELS 6 Xposition Yposition Zposition Zrotation Xrotation Yrotation
			JOINT rfoot
			{
				OFFSET 1.14428e-005 -43.2815 0
				CHANNELS 6 Xposition Yposition Zposition Zrotation Xrotation Yrotation
				JOINT rtoes
				{
					OFFSET 0 -14.1868 -3.08763
					CHANNELS 6 Xposition Yposition Zposition Zrotation Xrotation Yrotation
					End Site
					{
						OFFSET 0 -7.27332 0
					}
				}
			}
		}
	}
	JOINT lfemur
	{
		OFFSET 9.10607 -9.62778 4.76249
		CHANNELS 6 Xposition Yposition Zposition Zrotation Xrotation Yrotation
		JOINT ltibia
		{
			OFFSET -1.01399e-005 -38.3535 0
			CHANNELS 6 Xposition Yposition Zposition Zrotation Xrotation Yrotation
			JOINT lfoot
			{
				OFFSET -1.12937e-005 -42.7176 0
				CHANNELS 6 Xposition Yposition Zposition Zrotation Xrotation Yrotation
				JOINT ltoes
				{
					OFFSET 0 -13.9965 -2.83857
					CHANNELS 6 Xposition Yposition Zposition Zrotation Xrotation Yrotation
					End Site
					{
						OFFSET 0 -7.16348 0
					}
				}
			}
		}
	}
}
MOTION
Frames: 4
Frame Time: 0.00833333
-2.47872	95.5068	138.192	0.0208365	-0.556116	0.40075	0 0 0 -0.134762	3.12734	0.179784	-0.214371 12.3768 -1.12219 0.0157467	2.54459	0.199454	-0.00137213 12.3873 0.296195 0.0860302	0.85019	0.0819122	0.0883157 12.5016 0.82912 0.4123	-10.9747	-0.474	-1 10.1794 0.943522 2.51231	14.5388	-1.21237	0.667525 10.2797 -1.57149 0.558932	6.23602	-0.409288	0.0883157 12.5016 0.82912 -15	0	-0	20.61 4.45006 1.43784 41.3281	15.152	150.12	0 -30.3438 0 -180	87.4962	180	0 -18.964 0 1.3616e-014	-2.38408e-015	-109.863	0 -9.48199 0 1.22245	4.37968	-2.58917e-014	0 -3.17138 0 -0	7.12502	-0	0 -9.48199 0 25	15	-1.36605e-015	0.0883157 12.5016 0.82912 15	0	-0	-20.61 4.45 1.44 -21.782	11.0998	-178.427	0 -29.5102 0 -0	38.6066	-0	0 -19.2342 0 5.9695e-016	-2.83212e-015	113.805	0 -9.61712 0 1.22	4.38	-0	0 -3.29215 0 -0	7.12502	-0	0 -9.61712 0 25	15	-7.97034e-015	-8.46272 -9.62775 4.76248 -9.30836	-32.7931	-10.3582	1.00552e-005 -38.0331 0 -0	80.2543	-0	1.14428e-005 -43.2815 0 -1.54599	-44.9911	-2.18508	0 -14.1868 -3.08763 -0	-31.6211	-0	9.10607 -9.62778 4.76249 -2.79977	-2.8669	9.36611	-1.01399e-005 -38.3535 0 -0	22.9807	-0	-1.12937e-005 -42.7176 0 21.195	-78.6317	21.5801	0 -13.9965 -2.83857 -0	-28.8413	-0
-2.43754	95.6016	138.684	-0.286464	-0.592859	0.431923	0 0 0 0.0289337	2.94403	0.0255498	-0.214371 12.3768 -1.12219 0.0757036	2.46418	-0.00209898	-0.00137213 12.3873 0.296195 0.0569439	0.873582	-0.0160209	0.0883157 12.5016 0.82912 0.468782	-10.9556	-0.393724	-1 10.1794 0.943522 2.32392	15.1164	-1.10889	0.667525 10.2797 -1.57149 0.502475	6.4133	-0.370036	0.0883157 12.5016 0.82912 -15	0	-0	20.61 4.45006 1.43784 40.9742	14.2916	150.264	0 -30.3438 0 -180	87.5755	180	0 -18.964 0 1.36064e-014	-2.41044e-015	-110.092	0 -9.48199 0 1.22245	4.37968	-2.58917e-014	0 -3.17138 0 -0	7.12502	-0	0 -9.48199 0 25	15	-1.36605e-015	0.0883157 12.5016 0.82912 15	0	-0	-20.61 4.45 1.44 -22.317	11.4449	-177.622	0 -29.5102 0 -0	38.9546	-0	0 -19.2342 0 5.8304e-016	-2.80038e-015	113.522	0 -9.61712 0 1.22	4.38	-0	0 -3.29215 0 -0	7.12502	-0	0 -9.61712 0 25	15	-7.97034e-015	-8.46272 -9.62775 4.76248 -8.91893	-33.1881	-10.412	1.00552e-005 -38.0331 0 -0	80.3761	-0	1.14428e-005 -43.2815 0 -1.02472	-46.7587	-1.40547	0 -14.1868 -3.08763 -0	-32.3517	-0	9.10607 -9.62778 4.76249 -2.60476	-2.22938	8.9334	-1.01399e-005 -38.3535 0 -0	22.4746	-0	-1.12937e-005 -42.7176 0 22.9556	-78.5019	23.3753	0 -13.9965 -2.83857 -0	-29.3107	-0
-2.41139	95.6936	139.178	-0.598219	-0.605526	0.486206	0 0 0 0.161204	2.74849	-0.127909	-0.214371 12.3768 -1.12219 0.158148	2.38693	-0.203085	-0.00137213 12.3873 0.296195 0.0682315	0.906657	-0.114305	0.0883157 12.5016 0.82912 0.5101	-10.9597	-0.323678	-1 10.1794 0.943522 2.13676	15.6377	-1.01359	0.667525 10.2797 -1.57149 0.4483	6.57723	-0.33583	0.0883157 12.5016 0.82912 -15	0	-0	20.61 4.45006 1.43784 40.6307	13.4346	150.36	0 -30.3438 0 -180	87.5369	180	0 -18.964 0 1.35988e-014	-2.43113e-015	-110.272	0 -9.48199 0 1.22245	4.37968	-2.58917e-014	0 -3.17138 0 -0	7.12502	-0	0 -9.48199 0 25	15	-1.36605e-015	0.0883157 12.5016 0.82912 15	0	-0	-20.61 4.45 1.44 -22.9106	11.8063	-176.817	0 -29.5102 0 -0	39.3973	-0	0 -19.2342 0 5.67163e-016	-2.76361e-015	113.195	0 -9.61712 0 1.22	4.38	-0	0 -3.29215 0 -0	7.12502	-0	0 -9.61712 0 25	15	-7.97034e-015	-8.46272 -9.62775 4.76248 -8.50222	-33.5878	-10.4617	1.00552e-005 -38.0331 0 -0	80.3869	-0	1.14428e-005 -43.2815 0 -0.416034	-48.7131	-0.552632	0 -14.1868 -3.08763 -0	-33.144	-0	9.10607 -9.62778 4.76249 -2.39384	-1.62924	8.501	-1.01399e-005 -38.3535 0 -0	21.9881	-0	-1.12937e-005 -42.7176 0 24.6131	-78.367	25.066	0 -13.9965 -2.83857 -0	-29.743	-0
-2.39671	95.776	139.67	-0.903685	-0.599561	0.556551	0 0 0 0.25458	2.55334	-0.277521	-0.214371 12.3768 -1.12219 0.256911	2.31659	-0.399619	-0.00137213 12.3873 0.296195 0.117632	0.946304	-0.211103	0.0883157 12.5016 0.82912 0.535281	-10.982	-0.264013	-1 10.1794 0.943522 1.95565	16.0822	-0.92637	0.667525 10.2797 -1.57149 0.398098	6.7204	-0.306317	0.0883157 12.5016 0.82912 -15	0	-0	20.61 4.45006 1.43784 40.3041	12.5739	150.407	0 -30.3438 0 -180	87.3862	180	0 -18.964 0 1.3594e-014	-2.44411e-015	-110.385	0 -9.48199 0 1.22245	4.37968	-2.58917e-014	0 -3.17138 0 -0	7.12502	-0	0 -9.48199 0 25	15	-1.36605e-015	0.0883157 12.5016 0.82912 15	0	-0	-20.61 4.45 1.44 -23.5497	12.174	-176.034	0 -29.5102 0 -0	39.9235	-0	0 -19.2342 0 5.50211e-016	-2.72371e-015	112.841	0 -9.61712 0 1.22	4.38	-0	0 -3.29215 0 -0	7.12502	-0	0 -9.61712 0 25	15	-7.97034e-015	-8.46272 -9.62775 4.76248 -8.0691	-33.9964	-10.4963	1.00552e-005 -38.0331 0 -0	80.2914	-0	1.14428e-005 -43.2815 0 0.262491	-50.7926	0.339754	0 -14.1868 -3.08763 -0	-34.0119	-0	9.10607 -9.62778 4.76249 -2.17836	-1.06616	8.07855	-1.01399e-005 -38.3535 0 -0	21.5295	-0	-1.12937e-005 -42.7176 0 26.1713	-78.2356	26.6555	0 -13.9965 -2.83857 -0	-30.1232	-0
